#!OML:ASF F:\VICON\USERDATA\INSTALL\Justin_Nancy\Justin_Nancy.ASF
:FULLY-SPECIFIED
:DEGREES
401
root 3.30564 17.266 18.4999 -0.558285 36.0661 -2.71455
lowerback 5.76546 1.23262 2.57803
upperback 0.30789 1.89603 2.35424
thorax -2.91229 0.930139 0.824585
lowerneck -16.2574 -3.57775 -9.11446
upperneck 24.9197 -3.56591 4.45393
head 11.0025 -1.89495 2.65573
rclavicle -4.08999e-014 -1.98785e-014
rhumerus -31.2471 -12.7417 -77.7388
rradius 39.8729
rwrist 3.02462
rhand -13.2624 14.2342
rfingers 7.12502
rthumb 12.8403 -15.3508
lclavicle -4.08999e-014 -1.98785e-014
lhumerus -36.9744 12.8703 84.2678
lradius 23.6877
lwrist -12.6575
lhand -14.1554 23.5384
lfingers 7.12502
lthumb 11.9792 53.1757
rfemur 10.3517 2.89124 28.2801
rtibia 24.7151
rfoot -12.1057 -1.2625
rtoes -18.7325
lfemur -28.8425 -2.55855 -18.1408
ltibia 27.679
lfoot -4.89778 2.01122
ltoes -5.39606
402
root 3.42579 17.2842 18.6292 -0.14704 35.9894 -1.90278
lowerback 5.39365 1.14702 1.73254
upperback 0.475933 1.70815 2.34452
thorax -2.55518 0.849416 1.31241
lowerneck -16.2921 -3.52133 -9.21391
upperneck 24.8835 -3.43 4.36424
head 10.9864 -1.8533 2.65842
rclavicle -1.47598e-014 7.95139e-016
rhumerus -31.1058 -12.5973 -77.664
rradius 39.3536
rwrist 3.30633
rhand -13.6878 14.4964
rfingers 7.12502
rthumb 12.4301 -15.114
lclavicle -1.47598e-014 7.95139e-016
lhumerus -36.8316 12.2244 84.8122
lradius 24.0325
lwrist -11.3571
lhand -14.1946 22.625
lfingers 7.12502
lthumb 11.9414 52.2644
rfemur 8.95272 3.14665 27.4597
rtibia 28.025
rfoot -11.9397 -0.855402
rtoes -27.6085
lfemur -27.2912 -2.77235 -18.8803
ltibia 25.6707
lfoot -3.25547 0.61652
ltoes -4.55307
403
root 3.54246 17.3085 18.7579 0.0192108 36.1003 -1.29455
lowerback 5.5028 1.10861 1.29618
upperback 0.404543 1.63008 2.19704
thorax -2.69666 0.813421 1.40802
lowerneck -16.1056 -3.61552 -9.57008
upperneck 25.0543 -3.57608 4.70727
head 11.04 -1.91507 2.82746
rclavicle -6.11263e-015 -5.56597e-015
rhumerus -31.5544 -12.9146 -77.5932
rradius 38.8991
rwrist 3.10711
rhand -14.1241 14.7861
rfingers 7.12502
rthumb 12.0095 -14.8493
lclavicle -6.11263e-015 -5.56597e-015
lhumerus -36.4137 18.3257 81.6389
lradius 21.3546
lwrist -17.9638
lhand -13.9512 18.5374
lfingers 7.12502
lthumb 12.1762 48.163
rfemur 8.25604 3.53241 26.8404
rtibia 30.1329
rfoot -10.5698 0.400253
rtoes -21.0031
lfemur -26.5445 -3.03455 -19.441
ltibia 25.6359
lfoot -2.51622 -0.674704
ltoes -0.505457
404
root 3.65532 17.3188 18.8821 -0.115224 36.0726 -1.28469
lowerback 5.55913 1.14189 1.37858
upperback 0.321355 1.68093 2.1332
thorax -2.81049 0.836742 1.29008
lowerneck -15.9002 -3.65796 -9.67238
upperneck 25.1786 -3.67146 4.86447
head 11.0594 -1.95187 2.89256
rclavicle 1.6201e-014 1.03368e-014
rhumerus -29.4821 -12.693 -77.3813
rradius 36.0503
rwrist 1.90197
rhand -14.037 14.8323
rfingers 7.12502
rthumb 12.0935 -14.7982
lclavicle 1.6201e-014 1.03368e-014
lhumerus -36.7145 15.351 82.9295
lradius 22.5817
lwrist -15.0394
lhand -13.672 19.2228
lfingers 7.12502
lthumb 12.4453 48.8323
rfemur 7.51165 3.56964 26.7077
rtibia 32.4178
rfoot -9.19406 1.08526
rtoes -13.1776
lfemur -25.9407 -2.91787 -19.5688
ltibia 25.6941
lfoot -1.9187 -0.897314
ltoes 0.789964
405
root 3.7672 17.3247 19.0008 -0.202623 35.9639 -1.31284
lowerback 5.59729 1.13828 1.47985
upperback 0.217053 1.68603 2.12661
thorax -2.93647 0.837279 1.22429
lowerneck -15.9962 -3.63164 -9.77987
upperneck 25.592 -3.61442 4.92673
head 11.2332 -1.93154 2.94914
rclavicle 5.11871e-015 -7.15625e-015
rhumerus -31.501 -13.6672 -77.245
rradius 37.132
rwrist 2.74912
rhand -14.388 15.075
rfingers 7.12502
rthumb 11.755 -14.5752
lclavicle 5.11871e-015 -7.15625e-015
lhumerus -37.0114 14.1179 83.446
lradius 23.2872
lwrist -13.5894
lhand -13.9861 21.7193
lfingers 7.12502
lthumb 12.1425 51.3469
rfemur 6.49641 3.48144 26.4936
rtibia 34.8027
rfoot -7.31045 1.99489
rtoes -10.8535
lfemur -25.4697 -2.56875 -19.7353
ltibia 25.8851
lfoot -1.51734 -0.799753
ltoes 2.51808
406
root 3.88097 17.3448 19.1171 -0.0293023 36.0032 -1.00357
lowerback 5.61078 1.08475 1.40039
upperback 0.11568 1.60776 2.00448
thorax -3.04627 0.797624 1.14799
lowerneck -16.0202 -3.61565 -9.6785
upperneck 25.7613 -3.59028 4.82236
head 11.2958 -1.92492 2.8998
rclavicle -6.97734e-014 3.97569e-015
rhumerus -32.1905 -14.3384 -77.0935
rradius 37.0272
rwrist 3.50502
rhand -14.5666 14.952
rfingers 7.12502
rthumb 11.5827 -14.7079
lclavicle -6.97734e-014 3.97569e-015
lhumerus -37.1815 13.4566 83.6479
lradius 23.7757
lwrist -12.7998
lhand -14.0801 23.0325
lfingers 7.12502
lthumb 12.0519 52.6655
rfemur 5.2471 3.31012 25.9064
rtibia 37.2609
rfoot -4.74773 3.11184
rtoes -10.3159
lfemur -25.0082 -2.54793 -20.1554
ltibia 26.1613
lfoot -1.5088 -0.73105
ltoes 4.23908
407
root 3.99396 17.3625 19.2428 -0.291662 36.1681 -0.905738
lowerback 5.87828 0.978021 1.34887
upperback 0.0464573 1.46877 1.94269
thorax -3.266 0.727696 1.11932
lowerneck -15.7204 -3.56882 -9.27643
upperneck 25.7401 -3.59861 4.58154
head 11.2144 -1.92115 2.74322
rclavicle 1.44616e-014 3.18055e-015
rhumerus -32.321 -14.5089 -76.9903
rradius 36.3237
rwrist 3.61468
rhand -14.5643 14.5019
rfingers 7.12502
rthumb 11.5849 -15.1579
lclavicle 1.44616e-014 3.18055e-015
lhumerus -37.2951 13.9128 83.1214
lradius 23.5705
lwrist -13.1756
lhand -13.7113 22.8207
lfingers 7.12502
lthumb 12.4075 52.4325
rfemur 4.37729 2.94326 25.5708
rtibia 39.7103
rfoot -1.88089 4.02916
rtoes -9.93275
lfemur -24.2173 -2.37223 -20.4689
ltibia 26.4363
lfoot -1.75039 -1.19182
ltoes 4.11108
408
root 4.10539 17.3695 19.3664 -0.490504 36.2922 -0.751735
lowerback 6.05105 0.899686 1.25185
upperback 0.025564 1.36072 1.89382
thorax -3.38444 0.674569 1.12977
lowerneck -15.5096 -3.51325 -9.07881
upperneck 25.7539 -3.56193 4.46641
head 11.1677 -1.90099 2.6746
rclavicle 3.43401e-014 3.33958e-014
rhumerus -32.6426 -14.9675 -76.7247
rradius 35.8783
rwrist 4.18457
rhand -13.8844 14.2736
rfingers 7.12502
rthumb 12.2406 -15.3482
lclavicle 3.43401e-014 3.33958e-014
lhumerus -37.2893 15.2802 82.2226
lradius 22.9711
lwrist -14.5183
lhand -13.9188 21.5909
lfingers 7.12502
lthumb 12.2074 51.2146
rfemur 3.46502 2.38857 25.1377
rtibia 42.1279
rfoot 0.920153 4.94495
rtoes -11.3977
lfemur -23.4947 -2.07706 -20.874
ltibia 26.6194
lfoot -1.79757 -1.76272
ltoes 4.55464
409
root 4.21401 17.3794 19.4869 -0.584612 36.2001 -0.543053
lowerback 6.06948 0.896939 0.992111
upperback 0.104967 1.3395 1.94635
thorax -3.31966 0.668932 1.33192
lowerneck -15.5672 -3.51485 -9.21006
upperneck 25.8171 -3.50075 4.38919
head 11.2008 -1.89572 2.67761
rclavicle -6.24929e-014 1.35174e-014
rhumerus -32.8056 -15.3295 -76.3806
rradius 35.476
rwrist 4.80371
rhand -13.4566 13.8724
rfingers 7.12502
rthumb 12.653 -15.7243
lclavicle -6.24929e-014 1.35174e-014
lhumerus -37.173 15.5629 82.2045
lradius 23.0049
lwrist -14.6525
lhand -13.6196 20.9952
lfingers 7.12502
lthumb 12.4959 50.6016
rfemur 2.32555 2.08013 24.6339
rtibia 44.5928
rfoot 3.6214 5.80712
rtoes -10.6304
lfemur -22.7906 -1.91825 -21.2292
ltibia 26.763
lfoot -2.05368 -2.04636
ltoes 5.22341
410
root 4.32647 17.3944 19.6069 -0.452305 36.0022 -0.137369
lowerback 5.94041 0.927768 0.683352
upperback 0.196245 1.35195 1.88276
thorax -3.15861 0.679269 1.44112
lowerneck -15.7598 -3.55143 -9.52893
upperneck 25.8567 -3.50376 4.59334
head 11.2658 -1.90272 2.80576
rclavicle 4.5472e-015 1.11319e-014
rhumerus -33.089 -15.638 -76.289
rradius 35.2203
rwrist 4.91758
rhand -13.6742 13.9894
rfingers 7.12502
rthumb 12.4432 -15.6202
lclavicle 4.5472e-015 1.11319e-014
lhumerus -36.9132 15.5741 82.3294
lradius 23.1214
lwrist -14.5915
lhand -13.7483 21.5122
lfingers 7.12502
lthumb 12.3718 51.1261
rfemur 0.89365 1.97669 23.9344
rtibia 47.2874
rfoot 6.22299 6.30575
rtoes -6.23435
lfemur -22.0733 -1.94835 -21.7104
ltibia 26.8434
lfoot -2.47776 -1.88751
ltoes 5.23737
411
root 4.44811 17.4049 19.6967 -0.187065 35.2989 0.151197
lowerback 5.89248 1.00458 0.811212
upperback 0.186476 1.45682 1.74429
thorax -3.13709 0.728202 1.21817
lowerneck -15.9484 -3.47936 -9.58499
upperneck 25.8443 -3.37881 4.62926
head 11.2898 -1.84634 2.84534
rclavicle 3.00662e-015 -4.77083e-015
rhumerus -33.4385 -15.5152 -76.4528
rradius 35.0936
rwrist 4.20514
rhand -14.1343 14.2717
rfingers 7.12502
rthumb 11.9996 -15.3643
lclavicle 3.00662e-015 -4.77083e-015
lhumerus -36.6426 16.0767 82.054
lradius 23.0933
lwrist -14.9439
lhand -13.8358 21.1164
lfingers 7.12502
lthumb 12.2874 50.7354
rfemur -0.879482 2.14098 23.1471
rtibia 49.9001
rfoot 8.78469 7.03067
rtoes -3.16767
lfemur -21.5242 -2.01353 -22.1172
ltibia 26.713
lfoot -2.71633 -0.965987
ltoes 4.96202
412
root 4.568 17.4129 19.7597 0.598863 33.6765 0.782709
lowerback 5.80881 1.38992 0.722548
upperback 0.0423758 1.95625 1.52105
thorax -3.24195 0.975465 0.995245
lowerneck -16.0543 -3.3949 -9.67459
upperneck 25.8125 -3.22424 4.63136
head 11.2878 -1.78437 2.8827
rclavicle 7.48424e-014 -1.19271e-014
rhumerus -33.4069 -15.3301 -76.5398
rradius 34.6206
rwrist 4.0504
rhand -14.1888 14.3028
rfingers 7.12502
rthumb 11.9471 -15.3363
lclavicle 7.48424e-014 -1.19271e-014
lhumerus -36.4852 16.2035 81.968
lradius 23.2226
lwrist -14.82
lhand -13.3202 20.4612
lfingers 7.12502
lthumb 12.7845 50.0498
rfemur -3.46575 3.03469 21.8605
rtibia 52.7729
rfoot 11.6899 7.59852
rtoes 0.422677
lfemur -21.3265 -1.83604 -22.8174
ltibia 26.5095
lfoot -2.88658 0.642108
ltoes 3.80898
413
root 4.66041 17.4263 19.9298 0.0529624 35.3213 1.74815
lowerback 6.24218 0.831005 -0.411709
upperback 0.503583 1.12919 1.41182
thorax -3.01698 0.578417 1.58759
lowerneck -16.1799 -3.38444 -9.6418
upperneck 25.7427 -3.22011 4.67626
head 11.2854 -1.77243 2.89234
rclavicle -1.00088e-013 -1.03368e-014
rhumerus -33.1919 -15.4539 -76.5407
rradius 33.9464
rwrist 4.1991
rhand -13.8156 14.1516
rfingers 7.12502
rthumb 12.3069 -15.4663
lclavicle -1.00088e-013 -1.03368e-014
lhumerus -36.2233 15.0024 82.4376
lradius 23.6404
lwrist -13.653
lhand -13.6966 21.2907
lfingers 7.12502
lthumb 12.4217 50.9016
rfemur -3.18313 1.62312 21.2358
rtibia 55.1267
rfoot 13.5464 6.77352
rtoes 4.09671
lfemur -19.2194 -2.59571 -23.7983
ltibia 26.2249
lfoot -3.55362 0.0322994
ltoes 4.26333
414
root 4.76572 17.4353 20.0131 1.01238 34.0008 2.31304
lowerback 5.89561 1.21527 -0.638316
upperback 0.255831 1.61776 1.18108
thorax -3.09332 0.823768 1.43781
lowerneck -16.2573 -3.34917 -9.5923
upperneck 25.7617 -3.1658 4.63551
head 11.3016 -1.74786 2.87674
rclavicle -7.42709e-014 -1.03368e-014
rhumerus -33.1506 -15.3733 -76.6056
rradius 33.2869
rwrist 4.15028
rhand -13.9645 14.2164
rfingers 7.12502
rthumb 12.1633 -15.4099
lclavicle -7.42709e-014 -1.03368e-014
lhumerus -36.0836 13.7031 82.9524
lradius 24.2408
lwrist -12.5326
lhand -13.7714 21.5459
lfingers 7.12502
lthumb 12.3496 51.1611
rfemur -5.89965 2.28772 20.1724
rtibia 57.6746
rfoot 16.3765 7.13275
rtoes 7.23395
lfemur -19.2764 -2.08221 -24.464
ltibia 25.9313
lfoot -3.66157 0.941414
ltoes 4.15671
415
root 4.85566 17.4485 20.1378 0.808445 34.6849 2.69479
lowerback 6.28907 0.872635 -1.05226
upperback 0.309121 1.12967 1.13173
thorax -3.2508 0.587205 1.65658
lowerneck -16.1336 -3.22964 -9.5332
upperneck 25.6236 -2.99917 4.54449
head 11.208 -1.67766 2.85552
rclavicle 3.80921e-014 7.95139e-015
rhumerus -33.3558 -15.0712 -76.7753
rradius 32.8115
rwrist 4.40137
rhand -14.3101 14.3978
rfingers 7.12502
rthumb 11.8301 -15.248
lclavicle 3.80921e-014 7.95139e-015
lhumerus -35.9709 13.5072 82.9057
lradius 24.4331
lwrist -12.1657
lhand -13.7833 20.8147
lfingers 7.12502
lthumb 12.3381 50.4307
rfemur -6.71798 1.49674 19.8525
rtibia 59.6959
rfoot 18.4298 6.8943
rtoes 9.58165
lfemur -17.9963 -2.33902 -24.9032
ltibia 25.4649
lfoot -3.94276 0.637109
ltoes 3.68359
